<mxfile host="Electron" modified="2024-01-28T13:39:16.548Z" agent="Mozilla/5.0 (Macintosh; Intel Mac OS X 10_15_7) AppleWebKit/537.36 (KHTML, like Gecko) draw.io/22.1.18 Chrome/120.0.6099.199 Electron/28.1.2 Safari/537.36" etag="CiAuTiZtN9-rLMW9MZC_" version="22.1.18" type="device">
  <diagram name="Page-1" id="mvyvjCWlfHUkhX-k2Om3">
    <mxGraphModel dx="2074" dy="1214" grid="1" gridSize="10" guides="1" tooltips="1" connect="1" arrows="1" fold="1" page="1" pageScale="1" pageWidth="850" pageHeight="1100" math="0" shadow="0">
      <root>
        <mxCell id="0" />
        <mxCell id="1" parent="0" />
        <mxCell id="mZnFS5OKuAYvDTzdpXn2-1" value="" style="rounded=1;whiteSpace=wrap;html=1;sketch=1;curveFitting=1;jiggle=2;fillColor=#fff2cc;strokeColor=#d6b656;" vertex="1" parent="1">
          <mxGeometry x="340" y="690" width="140" height="100" as="geometry" />
        </mxCell>
        <mxCell id="J99Reh4bUe1s1G-MDTEG-3" value="" style="rounded=1;whiteSpace=wrap;html=1;sketch=1;curveFitting=1;jiggle=2;fillColor=#fff2cc;strokeColor=#d6b656;" parent="1" vertex="1">
          <mxGeometry x="500" y="270" width="140" height="120" as="geometry" />
        </mxCell>
        <mxCell id="J99Reh4bUe1s1G-MDTEG-4" value="&lt;b&gt;Adversarial&lt;br&gt;Answer&lt;/b&gt;&lt;br&gt;Operation&lt;br&gt;Node" style="rounded=1;whiteSpace=wrap;html=1;sketch=1;curveFitting=1;jiggle=2;fillColor=#B4E0B4;strokeColor=#009900;fillStyle=solid;fontColor=#006600;" parent="1" vertex="1">
          <mxGeometry x="520" y="290" width="100" height="80" as="geometry" />
        </mxCell>
        <mxCell id="J99Reh4bUe1s1G-MDTEG-5" value="&lt;b&gt;AdversarialAgent&lt;br&gt;&lt;/b&gt;Agent&lt;br&gt;Graph" style="text;html=1;strokeColor=none;fillColor=none;align=center;verticalAlign=middle;whiteSpace=wrap;rounded=0;fontColor=#CC6600;" parent="1" vertex="1">
          <mxGeometry x="525" y="210" width="90" height="60" as="geometry" />
        </mxCell>
        <mxCell id="J99Reh4bUe1s1G-MDTEG-18" value="&lt;b&gt;FinalDecision&lt;br&gt;&lt;/b&gt;Operation&lt;br&gt;Node" style="rounded=1;whiteSpace=wrap;html=1;sketch=1;curveFitting=1;jiggle=2;fillColor=#B4E0B4;strokeColor=#009900;fillStyle=solid;fontColor=#006600;" parent="1" vertex="1">
          <mxGeometry x="360" y="710" width="100" height="60" as="geometry" />
        </mxCell>
        <mxCell id="CZzCSnsS5xlX5FiLLCHD-4" value="" style="rounded=1;whiteSpace=wrap;html=1;sketch=1;curveFitting=1;jiggle=2;fillColor=#fff2cc;strokeColor=#d6b656;" parent="1" vertex="1">
          <mxGeometry x="100" y="290" width="140" height="120" as="geometry" />
        </mxCell>
        <mxCell id="CZzCSnsS5xlX5FiLLCHD-5" value="&lt;b&gt;DirectAnswer&lt;/b&gt;&lt;br&gt;Operation&lt;br&gt;Node" style="rounded=1;whiteSpace=wrap;html=1;sketch=1;curveFitting=1;jiggle=2;fillColor=#B4E0B4;strokeColor=#009900;fillStyle=solid;fontColor=#006600;" parent="1" vertex="1">
          <mxGeometry x="120" y="320.5" width="100" height="60" as="geometry" />
        </mxCell>
        <mxCell id="CZzCSnsS5xlX5FiLLCHD-6" value="&lt;b&gt;IO&lt;br&gt;&lt;/b&gt;Agent&lt;br&gt;Graph" style="text;html=1;strokeColor=none;fillColor=none;align=center;verticalAlign=middle;whiteSpace=wrap;rounded=0;fontColor=#CC6600;" parent="1" vertex="1">
          <mxGeometry x="130" y="230" width="90" height="60" as="geometry" />
        </mxCell>
        <mxCell id="CZzCSnsS5xlX5FiLLCHD-7" value="" style="rounded=1;whiteSpace=wrap;html=1;sketch=1;curveFitting=1;jiggle=2;fillColor=#fff2cc;strokeColor=#d6b656;" parent="1" vertex="1">
          <mxGeometry x="200" y="500" width="140" height="120" as="geometry" />
        </mxCell>
        <mxCell id="CZzCSnsS5xlX5FiLLCHD-8" value="&lt;b&gt;DirectAnswer&lt;/b&gt;&lt;br&gt;Operation&lt;br&gt;Node" style="rounded=1;whiteSpace=wrap;html=1;sketch=1;curveFitting=1;jiggle=2;fillColor=#B4E0B4;strokeColor=#009900;fillStyle=solid;fontColor=#006600;" parent="1" vertex="1">
          <mxGeometry x="220" y="530.5" width="100" height="60" as="geometry" />
        </mxCell>
        <mxCell id="CZzCSnsS5xlX5FiLLCHD-9" value="&lt;b&gt;IO&lt;br&gt;&lt;/b&gt;Agent&lt;br&gt;Graph" style="text;html=1;strokeColor=none;fillColor=none;align=center;verticalAlign=middle;whiteSpace=wrap;rounded=0;fontColor=#CC6600;" parent="1" vertex="1">
          <mxGeometry x="230" y="440" width="90" height="60" as="geometry" />
        </mxCell>
        <mxCell id="CZzCSnsS5xlX5FiLLCHD-10" value="" style="rounded=1;whiteSpace=wrap;html=1;sketch=1;curveFitting=1;jiggle=2;fillColor=#fff2cc;strokeColor=#d6b656;" parent="1" vertex="1">
          <mxGeometry x="600" y="510" width="140" height="120" as="geometry" />
        </mxCell>
        <mxCell id="CZzCSnsS5xlX5FiLLCHD-11" value="&lt;b&gt;Adversarial&lt;br&gt;Answer&lt;/b&gt;&lt;br&gt;Operation&lt;br&gt;Node" style="rounded=1;whiteSpace=wrap;html=1;sketch=1;curveFitting=1;jiggle=2;fillColor=#B4E0B4;strokeColor=#009900;fillStyle=solid;fontColor=#006600;" parent="1" vertex="1">
          <mxGeometry x="620" y="530" width="100" height="80" as="geometry" />
        </mxCell>
        <mxCell id="CZzCSnsS5xlX5FiLLCHD-12" value="&lt;b&gt;AdversarialAgent&lt;br&gt;&lt;/b&gt;Agent&lt;br&gt;Graph" style="text;html=1;strokeColor=none;fillColor=none;align=center;verticalAlign=middle;whiteSpace=wrap;rounded=0;fontColor=#CC6600;" parent="1" vertex="1">
          <mxGeometry x="630" y="450" width="90" height="60" as="geometry" />
        </mxCell>
        <mxCell id="CZzCSnsS5xlX5FiLLCHD-19" value="" style="endArrow=classic;html=1;rounded=0;strokeWidth=3;sketch=1;curveFitting=1;jiggle=2;entryX=0;entryY=0.5;entryDx=0;entryDy=0;exitX=0.25;exitY=1;exitDx=0;exitDy=0;strokeColor=#1f1f1f;" parent="1" source="CZzCSnsS5xlX5FiLLCHD-5" target="J99Reh4bUe1s1G-MDTEG-18" edge="1">
          <mxGeometry width="50" height="50" relative="1" as="geometry">
            <mxPoint x="155" y="391" as="sourcePoint" />
            <mxPoint x="255" y="541" as="targetPoint" />
            <Array as="points">
              <mxPoint x="170" y="660" />
            </Array>
          </mxGeometry>
        </mxCell>
        <mxCell id="CZzCSnsS5xlX5FiLLCHD-25" value="" style="endArrow=classic;html=1;rounded=0;strokeWidth=3;sketch=1;curveFitting=1;jiggle=2;entryX=0.25;entryY=0;entryDx=0;entryDy=0;exitX=0.75;exitY=1;exitDx=0;exitDy=0;strokeColor=#1f1f1f;" parent="1" source="CZzCSnsS5xlX5FiLLCHD-8" target="J99Reh4bUe1s1G-MDTEG-18" edge="1">
          <mxGeometry width="50" height="50" relative="1" as="geometry">
            <mxPoint x="500" y="430" as="sourcePoint" />
            <mxPoint x="575" y="590" as="targetPoint" />
          </mxGeometry>
        </mxCell>
        <mxCell id="CZzCSnsS5xlX5FiLLCHD-31" value="" style="endArrow=classic;html=1;rounded=0;strokeWidth=3;sketch=1;curveFitting=1;jiggle=2;entryX=0.75;entryY=1;entryDx=0;entryDy=0;exitX=0.5;exitY=0;exitDx=0;exitDy=0;strokeColor=#1f1f1f;" parent="1" source="CZzCSnsS5xlX5FiLLCHD-8" target="CZzCSnsS5xlX5FiLLCHD-5" edge="1">
          <mxGeometry width="50" height="50" relative="1" as="geometry">
            <mxPoint x="180" y="391" as="sourcePoint" />
            <mxPoint x="255" y="541" as="targetPoint" />
          </mxGeometry>
        </mxCell>
        <mxCell id="mZnFS5OKuAYvDTzdpXn2-2" value="&lt;b&gt;DecisionAgent&lt;br&gt;&lt;/b&gt;Agent&lt;br&gt;Graph" style="text;html=1;strokeColor=none;fillColor=none;align=center;verticalAlign=middle;whiteSpace=wrap;rounded=0;fontColor=#CC6600;" vertex="1" parent="1">
          <mxGeometry x="490" y="710" width="90" height="60" as="geometry" />
        </mxCell>
        <mxCell id="mZnFS5OKuAYvDTzdpXn2-3" value="&lt;font style=&quot;font-size: 40px;&quot;&gt;PRUNED&lt;/font&gt;" style="text;strokeColor=none;fillColor=none;align=left;verticalAlign=middle;spacingLeft=4;spacingRight=4;overflow=hidden;points=[[0,0.5],[1,0.5]];portConstraint=eastwest;rotatable=1;whiteSpace=wrap;html=1;sketch=1;curveFitting=1;jiggle=2;portConstraintRotation=0;rotation=-20;" vertex="1" parent="1">
          <mxGeometry x="480" y="310" width="180" height="50" as="geometry" />
        </mxCell>
        <mxCell id="mZnFS5OKuAYvDTzdpXn2-4" value="&lt;font style=&quot;font-size: 40px;&quot;&gt;PRUNED&lt;/font&gt;" style="text;strokeColor=none;fillColor=none;align=left;verticalAlign=middle;spacingLeft=4;spacingRight=4;overflow=hidden;points=[[0,0.5],[1,0.5]];portConstraint=eastwest;rotatable=1;whiteSpace=wrap;html=1;sketch=1;curveFitting=1;jiggle=2;portConstraintRotation=0;rotation=-20;" vertex="1" parent="1">
          <mxGeometry x="580" y="545" width="180" height="50" as="geometry" />
        </mxCell>
      </root>
    </mxGraphModel>
  </diagram>
</mxfile>
